<svg xmlns="http://www.w3.org/2000/svg" viewBox="0 0 418.271 175.619"><title>Asset 90</title><path d="M403.153,26.286c-29.647-16.093-60.8-27.355-95.184-26.2-19.7.665-38.77,5.424-57.839,9.964-10.533,2.5-21.066,5.051-31.544,7.8a43.466,43.466,0,0,1-9.451,1.327,43.05,43.05,0,0,1-9.447-1.327c-10.481-2.748-21.01-5.3-31.547-7.8C149.069,5.509,130,.746,110.3.081,75.91-1.069,44.762,10.2,15.118,26.286,1.625,33.61-1.889,40.109.878,52.041,4.169,66.229,8.553,80.269,14.842,93.354a376.655,376.655,0,0,0,18.521,34.161c11.046,17.973,22.986,34.2,43.836,41.686,12.655,4.543,25.568,7.076,38.961,6.269,7.461-.452,14.22-3.645,20.882-6.947,6.615-3.284,13.375-6.31,19.324-10.746,5.907-4.407,12.187-8.512,17.315-13.732,0,0,21.213-20.646,35.455-23.819,14.249,3.177,35.454,23.819,35.454,23.819,5.128,5.22,11.409,9.325,17.321,13.732,5.946,4.436,12.712,7.458,19.324,10.746,6.656,3.3,13.415,6.494,20.882,6.947,13.393.806,26.3-1.726,38.961-6.269,20.848-7.484,32.794-23.713,43.831-41.686a376,376,0,0,0,18.522-34.161c6.284-13.085,10.669-27.121,13.963-41.313C420.158,40.109,416.643,33.61,403.153,26.286ZM104.911,106.579C78.144,97.474,64.26,67.111,64.26,67.111s29.514-15.6,56.28-6.494,40.646,39.464,40.646,39.464S131.673,115.68,104.911,106.579Zm208.451,0c-26.765,9.1-56.282-6.5-56.282-6.5s13.886-30.364,40.654-39.464,56.275,6.494,56.275,6.494S340.131,97.474,313.362,106.579Z" fill="#193791"/><path d="M110.3.081C75.91-1.069,44.762,10.2,15.118,26.286,1.625,33.61-1.889,40.109.878,52.041,4.169,66.229,8.553,80.269,14.842,93.354a376.655,376.655,0,0,0,18.521,34.161c11.046,17.973,22.986,34.2,43.836,41.686,12.655,4.543,25.568,7.076,38.961,6.269,7.461-.452,14.22-3.645,20.882-6.947,6.615-3.284,13.375-6.31,19.324-10.746,5.907-4.407,12.187-8.512,17.315-13.732,0,0,21.213-20.646,35.455-23.819C209.437,72.479,130,.746,110.3.081Zm-5.391,106.5C78.144,97.474,64.26,67.111,64.26,67.111s29.514-15.6,56.28-6.494,40.646,39.464,40.646,39.464S131.673,115.68,104.911,106.579Z" fill="#4e67b3"/><path d="M313.362,106.579c-26.765,9.1-56.282-6.5-56.282-6.5s13.886-30.364,40.654-39.464,56.275,6.494,56.275,6.494S340.131,97.474,313.362,106.579Z" fill="#778dcd"/><path d="M15.118,26.286C1.625,33.61-1.889,40.109.878,52.041,4.169,66.229,8.553,80.269,14.842,93.354a376.655,376.655,0,0,0,18.521,34.161c11.046,17.973,22.986,34.2,43.836,41.686,12.655,4.543,25.568,7.076,38.961,6.269,7.461-.452,14.22-3.645,20.882-6.947,6.615-3.284,27.852-58.124,42.094-61.3C179.437,59.479,44.762,10.2,15.118,26.286Zm89.793,80.293C78.144,97.474,64.26,67.111,64.26,67.111s29.514-15.6,56.28-6.494,40.646,39.464,40.646,39.464S131.673,115.68,104.911,106.579Z" fill="#0f2872"/></svg>