<?xml version="1.0" encoding="UTF-8"?>
<svg width="159px" height="165px" viewBox="0 0 159 165" version="1.1" xmlns="http://www.w3.org/2000/svg" xmlns:xlink="http://www.w3.org/1999/xlink">
    <!-- Generator: Sketch 60.1 (88133) - https://sketch.com -->
    <title>Figure/Maskopy/1</title>
    <desc>Created with Sketch.</desc>
    <g id="Features" stroke="none" stroke-width="1" fill="none" fill-rule="evenodd">
        <g id="Features---Maskopy" transform="translate(-228.000000, -179.000000)">
            <g id="Overview" transform="translate(211.000000, 110.000000)">
                <g id="Feature-1" transform="translate(19.000000, 69.000000)">
                    <g id="Figure/Maskopy/1">
                        <circle id="Oval" stroke="#333333" stroke-width="4" fill="#000000" cx="35" cy="79" r="35"></circle>
                        <circle id="Oval" stroke="#CCCCCC" stroke-width="2" fill="#000000" cx="35" cy="79" r="25"></circle>
                        <g id="database" transform="translate(24.000000, 67.000000)" fill="#FFFFFF" fill-rule="nonzero">
                            <path d="M10.5,1.5 C15.46875,1.5 19.5,2.84765625 19.5,4.5 L19.5,6 C19.5,7.65234375 15.46875,9 10.5,9 C5.53125,9 1.5,7.65234375 1.5,6 L1.5,4.5 C1.5,2.84765625 5.53125,1.5 10.5,1.5 M19.5,8.5078125 L19.5,10.5 C19.5,12.1523438 15.46875,13.5 10.5,13.5 C5.53125,13.5 1.5,12.1523438 1.5,10.5 L1.5,8.5078125 C3.43359375,9.8671875 6.97265625,10.5 10.5,10.5 C14.0273438,10.5 17.5663594,9.8671875 19.5,8.5078125 M19.5,13.0078125 L19.5,15 C19.5,16.6523438 15.46875,18 10.5,18 C5.53125,18 1.5,16.6523438 1.5,15 L1.5,13.0078125 C3.43359375,14.3671875 6.97265625,15 10.5,15 C14.0273438,15 17.5663594,14.3671875 19.5,13.0078125 M19.5,17.5078125 L19.5,19.5 C19.5,21.1523438 15.46875,22.5 10.5,22.5 C5.53125,22.5 1.5,21.1523438 1.5,19.5 L1.5,17.5078125 C3.43359375,18.8671875 6.97265625,19.5 10.5,19.5 C14.0273438,19.5 17.5663594,18.8671875 19.5,17.5078125 M10.5,0 C6.83709375,0 0,0.881296875 0,4.5 L0,19.5 C0,23.1252187 6.84825,24 10.5,24 C14.1629063,24 21,23.1187031 21,19.5 L21,4.5 C21,0.87478125 14.15175,0 10.5,0 Z" id="Shape"></path>
                        </g>
                        <circle id="Oval" stroke="#333333" stroke-width="4" fill="#000000" cx="106" cy="109" r="45"></circle>
                        <circle id="Oval" stroke="#CCCCCC" stroke-width="2" fill="#000000" cx="106" cy="109" r="35"></circle>
                        <circle id="Oval" stroke="#CCCCCC" stroke-width="2" fill="#000000" cx="136" cy="144" r="20"></circle>
                        <g id="lock-alt" transform="translate(127.000000, 134.000000)" fill="#FFFFFF" fill-rule="nonzero">
                            <path d="M8.71595331,16.381323 C8.28793774,16.381323 7.93774319,16.0311284 7.93774319,15.6031128 L7.93774319,13.1128405 C7.93774319,12.6848249 8.28793774,12.3346304 8.71595331,12.3346304 C9.14396887,12.3346304 9.49416342,12.6848249 9.49416342,13.1128405 L9.49416342,15.6031128 C9.49416342,16.0311284 9.14396887,16.381323 8.71595331,16.381323 Z M17.4319066,10.6225681 L17.4319066,18.0933852 C17.4319066,19.1245136 16.5953307,19.9610895 15.5642023,19.9610895 L1.86770428,19.9610895 C0.836575875,19.9610895 0,19.1245136 0,18.0933852 L0,10.6225681 C0,9.59143969 0.836575875,8.75486381 1.86770428,8.75486381 L2.49027237,8.75486381 L2.49027237,6.26459144 C2.49027237,2.82490272 5.29182879,0.0272373541 8.73540856,0.0388741088 C12.1750973,0.0505836576 14.9416342,2.88326848 14.9416342,6.3229572 L14.9416342,8.75486381 L15.5642023,8.75486381 C16.5953307,8.75486381 17.4319066,9.59143969 17.4319066,10.6225681 Z M3.73540856,8.75486381 L13.6964981,8.75486381 L13.6964981,6.26459144 C13.6964981,3.51750973 11.463035,1.28404669 8.71595331,1.28404669 C5.9688716,1.28404669 3.73540856,3.51750973 3.73540856,6.26459144 L3.73540856,8.75486381 Z M16.1867704,18.0933852 L16.1867704,10.6225681 C16.1867704,10.2801556 15.9066148,10 15.5642023,10 L1.86770428,10 C1.52529183,10 1.24513619,10.2801556 1.24513619,10.6225681 L1.24513619,18.0933852 C1.24513619,18.4357977 1.52529183,18.7159533 1.86770428,18.7159533 L15.5642023,18.7159533 C15.9066148,18.7159533 16.1867704,18.4357977 16.1867704,18.0933852 Z" id="Shape"></path>
                        </g>
                        <rect id="Rectangle" fill="#333333" transform="translate(70.500000, 44.000000) scale(-1, 1) rotate(-50.000000) translate(-70.500000, -44.000000) " x="63" y="29" width="15" height="30"></rect>
                        <rect id="Rectangle" fill="#333333" transform="translate(94.500000, 51.000000) scale(-1, 1) rotate(15.000000) translate(-94.500000, -51.000000) " x="87" y="36" width="15" height="30"></rect>
                        <circle id="Oval" fill="#333333" cx="86" cy="30" r="30"></circle>
                        <g id="Maskopy_logo" transform="translate(62.000000, 20.000000)" fill-rule="nonzero">
                            <path d="M46.1845919,3.01128401 C42.7882768,1.16769451 39.2194368,-0.122463007 35.2804582,0.00985202864 C33.0236563,0.0860334129 30.8390263,0.631217184 28.6545107,1.15131265 C27.4478663,1.43770883 26.241222,1.72994749 25.0408783,2.04486874 C24.6866549,2.13512887 24.3235694,2.18610912 23.9581862,2.19688783 C23.5929237,2.18646465 23.2299511,2.13547865 22.8759523,2.04486874 C21.6752649,1.73006205 20.4690788,1.43770883 19.2619761,1.15131265 C17.0771169,0.631102625 14.8926014,0.0854606205 12.6357995,0.00927923628 C8.69613365,-0.122463007 5.12786635,1.16849642 1.73189499,3.01128401 C0.186157518,3.85031026 -0.216400955,4.59482578 0.100582339,5.96173747 C0.477594272,7.58709308 0.979818616,9.19549403 1.70027685,10.6944916 C2.3397166,12.0346069 3.04790463,13.3408221 3.82201432,14.6079236 C5.08742721,16.6668831 6.45525537,18.5258234 8.84379952,19.3834081 C10.293537,19.9038473 11.7728305,20.1940239 13.3071122,20.1015752 C14.1618329,20.0497947 14.9361337,19.6840095 15.6993222,19.3057375 C16.4571265,18.9295274 17.2315418,18.5828735 17.9130501,18.0746921 C18.589747,17.5698329 19.3091742,17.0995704 19.8966301,16.5015752 C19.8966301,16.5015752 22.3267589,14.136401 23.9583007,13.7729069 C25.5906444,14.1368592 28.0198568,16.5015752 28.0198568,16.5015752 C28.6073126,17.0995704 29.3268544,17.5698329 30.0041241,18.0746921 C30.6852888,18.5828735 31.4603914,18.9290692 32.217852,19.3057375 C32.9803532,19.6837804 33.7546539,20.0496802 34.6100621,20.1015752 C36.1443437,20.1939093 37.6229499,19.9038473 39.0733747,19.3834081 C41.4616897,18.5260525 42.8302053,16.6668831 44.0945871,14.6079236 C44.8688516,13.3408913 45.5770812,12.03467 46.2164391,10.6944916 C46.9363246,9.19549403 47.4386635,7.58755131 47.8160191,5.96173747 C48.1326587,4.59482578 47.7299857,3.85031026 46.1845919,3.01128401 Z M12.0184439,12.2095274 C8.95205728,11.1664726 7.36152745,7.68813365 7.36152745,7.68813365 C7.36152745,7.68813365 10.7426062,5.90102148 13.8088783,6.94419093 C16.8751504,7.98736038 18.465222,11.4651265 18.465222,11.4651265 C18.465222,11.4651265 15.0842578,13.2521241 12.0184439,12.2095274 Z M35.8982721,12.2095274 C32.8321146,13.2520095 29.4506921,11.4648974 29.4506921,11.4648974 C29.4506921,11.4648974 31.0414511,7.98644391 34.1079523,6.94396181 C37.1744535,5.90147971 40.5547303,7.68790453 40.5547303,7.68790453 C40.5547303,7.68790453 38.9648878,11.1664726 35.8982721,12.2095274 L35.8982721,12.2095274 Z" id="Shape" fill="#193791"></path>
                            <path d="M12.6357995,0.00927923628 C8.69613365,-0.122463007 5.12786635,1.16849642 1.73189499,3.01128401 C0.186157518,3.85031026 -0.216400955,4.59482578 0.100582339,5.96173747 C0.477594272,7.58709308 0.979818616,9.19549403 1.70027685,10.6944916 C2.3397166,12.0346069 3.04790463,13.3408221 3.82201432,14.6079236 C5.08742721,16.6668831 6.45525537,18.5258234 8.84379952,19.3834081 C10.293537,19.9038473 11.7728305,20.1940239 13.3071122,20.1015752 C14.1618329,20.0497947 14.9361337,19.6840095 15.6993222,19.3057375 C16.4571265,18.9295274 17.2315418,18.5828735 17.9130501,18.0746921 C18.589747,17.5698329 19.3091742,17.0995704 19.8966301,16.5015752 C19.8966301,16.5015752 22.3267589,14.136401 23.9583984,13.7729069 C23.9927828,8.30308353 14.8926014,0.0854606205 12.6357995,0.00927923628 Z M12.0182148,12.2097566 C8.95205728,11.1664726 7.36152745,7.68813365 7.36152745,7.68813365 C7.36152745,7.68813365 10.7426062,5.90102148 13.8088783,6.94419093 C16.8751504,7.98736038 18.465222,11.4651265 18.465222,11.4651265 C18.465222,11.4651265 15.0842578,13.2521241 12.0184439,12.2095274 L12.0182148,12.2097566 Z" id="Shape" fill="#4E67B3"></path>
                            <path d="M35.8982721,12.2095274 C32.8321146,13.2520095 29.4506921,11.4648974 29.4506921,11.4648974 C29.4506921,11.4648974 31.0414511,7.98644391 34.1079523,6.94396181 C37.1744535,5.90147971 40.5547303,7.68790453 40.5547303,7.68790453 C40.5547303,7.68790453 38.9648878,11.1664726 35.8982721,12.2095274 Z" id="Path" fill="#778DCD"></path>
                            <path d="M1.73189499,3.01128401 C0.186157518,3.85031026 -0.216400955,4.59482578 0.100582339,5.96173747 C0.477594272,7.58709308 0.979818616,9.19549403 1.70027685,10.6944916 C2.3397166,12.0346069 3.04790463,13.3408221 3.82201432,14.6079236 C5.08742721,16.6668831 6.45525537,18.5258234 8.84379952,19.3834081 C10.293537,19.9038473 11.7728305,20.1940239 13.3071122,20.1015752 C14.1618329,20.0497947 14.9361337,19.6840095 15.6993222,19.3057375 C16.4571265,18.9295274 18.8900048,12.6471408 20.5216042,12.2833031 C20.5560286,6.81382339 5.12786635,1.16849642 1.73189499,3.01128401 Z M12.0184439,12.2095274 C8.95205728,11.1664726 7.36152745,7.68813365 7.36152745,7.68813365 C7.36152745,7.68813365 10.7426062,5.90102148 13.8088783,6.94419093 C16.8751504,7.98736038 18.465222,11.4651265 18.465222,11.4651265 C18.465222,11.4651265 15.0842578,13.2521241 12.0184439,12.2095274 L12.0184439,12.2095274 Z" id="Shape" fill="#0F2872"></path>
                        </g>
                        <g id="database" transform="translate(90.000000, 91.000000)" fill="#FFFFFF" fill-rule="nonzero">
                            <path d="M15.75,2.25 C23.203125,2.25 29.25,4.27148438 29.25,6.75 L29.25,9 C29.25,11.4785156 23.203125,13.5 15.75,13.5 C8.296875,13.5 2.25,11.4785156 2.25,9 L2.25,6.75 C2.25,4.27148438 8.296875,2.25 15.75,2.25 M29.25,12.7617188 L29.25,15.75 C29.25,18.2285156 23.203125,20.25 15.75,20.25 C8.296875,20.25 2.25,18.2285156 2.25,15.75 L2.25,12.7617188 C5.15039062,14.8007812 10.4589844,15.75 15.75,15.75 C21.0410156,15.75 26.3495391,14.8007812 29.25,12.7617188 M29.25,19.5117188 L29.25,22.5 C29.25,24.9785156 23.203125,27 15.75,27 C8.296875,27 2.25,24.9785156 2.25,22.5 L2.25,19.5117188 C5.15039062,21.5507812 10.4589844,22.5 15.75,22.5 C21.0410156,22.5 26.3495391,21.5507812 29.25,19.5117188 M29.25,26.2617188 L29.25,29.25 C29.25,31.7285156 23.203125,33.75 15.75,33.75 C8.296875,33.75 2.25,31.7285156 2.25,29.25 L2.25,26.2617188 C5.15039062,28.3007812 10.4589844,29.25 15.75,29.25 C21.0410156,29.25 26.3495391,28.3007812 29.25,26.2617188 M15.75,0 C10.2556406,0 0,1.32194531 0,6.75 L0,29.25 C0,34.6878281 10.272375,36 15.75,36 C21.2443594,36 31.5,34.6780547 31.5,29.25 L31.5,6.75 C31.5,1.31217188 21.227625,0 15.75,0 Z" id="Shape"></path>
                        </g>
                    </g>
                </g>
            </g>
        </g>
    </g>
</svg>