<?xml version="1.0" encoding="UTF-8"?>
<svg width="192px" height="126px" viewBox="0 0 192 126" version="1.1" xmlns="http://www.w3.org/2000/svg" xmlns:xlink="http://www.w3.org/1999/xlink">
    <!-- Generator: Sketch 60.1 (88133) - https://sketch.com -->
    <title>Figure/Maskopy/2</title>
    <desc>Created with Sketch.</desc>
    <g id="Features" stroke="none" stroke-width="1" fill="none" fill-rule="evenodd">
        <g id="Features---Maskopy" transform="translate(-211.000000, -383.000000)">
            <g id="Overview" transform="translate(211.000000, 110.000000)">
                <g id="Feature-2" transform="translate(0.000000, 275.000000)">
                    <g id="Figure/Maskopy/2">
                        <circle id="Oval" fill="#333333" cx="30" cy="55" r="30"></circle>
                        <g id="Maskopy_logo" transform="translate(6.000000, 45.000000)" fill-rule="nonzero">
                            <path d="M46.1845919,3.01128401 C42.7882768,1.16769451 39.2194368,-0.122463007 35.2804582,0.00985202864 C33.0236563,0.0860334129 30.8390263,0.631217184 28.6545107,1.15131265 C27.4478663,1.43770883 26.241222,1.72994749 25.0408783,2.04486874 C24.6866549,2.13512887 24.3235694,2.18610912 23.9581862,2.19688783 C23.5929237,2.18646465 23.2299511,2.13547865 22.8759523,2.04486874 C21.6752649,1.73006205 20.4690788,1.43770883 19.2619761,1.15131265 C17.0771169,0.631102625 14.8926014,0.0854606205 12.6357995,0.00927923628 C8.69613365,-0.122463007 5.12786635,1.16849642 1.73189499,3.01128401 C0.186157518,3.85031026 -0.216400955,4.59482578 0.100582339,5.96173747 C0.477594272,7.58709308 0.979818616,9.19549403 1.70027685,10.6944916 C2.3397166,12.0346069 3.04790463,13.3408221 3.82201432,14.6079236 C5.08742721,16.6668831 6.45525537,18.5258234 8.84379952,19.3834081 C10.293537,19.9038473 11.7728305,20.1940239 13.3071122,20.1015752 C14.1618329,20.0497947 14.9361337,19.6840095 15.6993222,19.3057375 C16.4571265,18.9295274 17.2315418,18.5828735 17.9130501,18.0746921 C18.589747,17.5698329 19.3091742,17.0995704 19.8966301,16.5015752 C19.8966301,16.5015752 22.3267589,14.136401 23.9583007,13.7729069 C25.5906444,14.1368592 28.0198568,16.5015752 28.0198568,16.5015752 C28.6073126,17.0995704 29.3268544,17.5698329 30.0041241,18.0746921 C30.6852888,18.5828735 31.4603914,18.9290692 32.217852,19.3057375 C32.9803532,19.6837804 33.7546539,20.0496802 34.6100621,20.1015752 C36.1443437,20.1939093 37.6229499,19.9038473 39.0733747,19.3834081 C41.4616897,18.5260525 42.8302053,16.6668831 44.0945871,14.6079236 C44.8688516,13.3408913 45.5770812,12.03467 46.2164391,10.6944916 C46.9363246,9.19549403 47.4386635,7.58755131 47.8160191,5.96173747 C48.1326587,4.59482578 47.7299857,3.85031026 46.1845919,3.01128401 Z M12.0184439,12.2095274 C8.95205728,11.1664726 7.36152745,7.68813365 7.36152745,7.68813365 C7.36152745,7.68813365 10.7426062,5.90102148 13.8088783,6.94419093 C16.8751504,7.98736038 18.465222,11.4651265 18.465222,11.4651265 C18.465222,11.4651265 15.0842578,13.2521241 12.0184439,12.2095274 Z M35.8982721,12.2095274 C32.8321146,13.2520095 29.4506921,11.4648974 29.4506921,11.4648974 C29.4506921,11.4648974 31.0414511,7.98644391 34.1079523,6.94396181 C37.1744535,5.90147971 40.5547303,7.68790453 40.5547303,7.68790453 C40.5547303,7.68790453 38.9648878,11.1664726 35.8982721,12.2095274 L35.8982721,12.2095274 Z" id="Shape" fill="#193791"></path>
                            <path d="M12.6357995,0.00927923628 C8.69613365,-0.122463007 5.12786635,1.16849642 1.73189499,3.01128401 C0.186157518,3.85031026 -0.216400955,4.59482578 0.100582339,5.96173747 C0.477594272,7.58709308 0.979818616,9.19549403 1.70027685,10.6944916 C2.3397166,12.0346069 3.04790463,13.3408221 3.82201432,14.6079236 C5.08742721,16.6668831 6.45525537,18.5258234 8.84379952,19.3834081 C10.293537,19.9038473 11.7728305,20.1940239 13.3071122,20.1015752 C14.1618329,20.0497947 14.9361337,19.6840095 15.6993222,19.3057375 C16.4571265,18.9295274 17.2315418,18.5828735 17.9130501,18.0746921 C18.589747,17.5698329 19.3091742,17.0995704 19.8966301,16.5015752 C19.8966301,16.5015752 22.3267589,14.136401 23.9583984,13.7729069 C23.9927828,8.30308353 14.8926014,0.0854606205 12.6357995,0.00927923628 Z M12.0182148,12.2097566 C8.95205728,11.1664726 7.36152745,7.68813365 7.36152745,7.68813365 C7.36152745,7.68813365 10.7426062,5.90102148 13.8088783,6.94419093 C16.8751504,7.98736038 18.465222,11.4651265 18.465222,11.4651265 C18.465222,11.4651265 15.0842578,13.2521241 12.0184439,12.2095274 L12.0182148,12.2097566 Z" id="Shape" fill="#4E67B3"></path>
                            <path d="M35.8982721,12.2095274 C32.8321146,13.2520095 29.4506921,11.4648974 29.4506921,11.4648974 C29.4506921,11.4648974 31.0414511,7.98644391 34.1079523,6.94396181 C37.1744535,5.90147971 40.5547303,7.68790453 40.5547303,7.68790453 C40.5547303,7.68790453 38.9648878,11.1664726 35.8982721,12.2095274 Z" id="Path" fill="#778DCD"></path>
                            <path d="M1.73189499,3.01128401 C0.186157518,3.85031026 -0.216400955,4.59482578 0.100582339,5.96173747 C0.477594272,7.58709308 0.979818616,9.19549403 1.70027685,10.6944916 C2.3397166,12.0346069 3.04790463,13.3408221 3.82201432,14.6079236 C5.08742721,16.6668831 6.45525537,18.5258234 8.84379952,19.3834081 C10.293537,19.9038473 11.7728305,20.1940239 13.3071122,20.1015752 C14.1618329,20.0497947 14.9361337,19.6840095 15.6993222,19.3057375 C16.4571265,18.9295274 18.8900048,12.6471408 20.5216042,12.2833031 C20.5560286,6.81382339 5.12786635,1.16849642 1.73189499,3.01128401 Z M12.0184439,12.2095274 C8.95205728,11.1664726 7.36152745,7.68813365 7.36152745,7.68813365 C7.36152745,7.68813365 10.7426062,5.90102148 13.8088783,6.94419093 C16.8751504,7.98736038 18.465222,11.4651265 18.465222,11.4651265 C18.465222,11.4651265 15.0842578,13.2521241 12.0184439,12.2095274 L12.0184439,12.2095274 Z" id="Shape" fill="#0F2872"></path>
                        </g>
                        <rect id="Rectangle" fill="#333333" transform="translate(67.500000, 55.000000) scale(-1, 1) rotate(90.000000) translate(-67.500000, -55.000000) " x="60" y="40" width="15" height="30"></rect>
                        <circle id="Oval" stroke="#333333" stroke-width="4" fill="#000000" cx="122" cy="55" r="55"></circle>
                        <circle id="Oval" stroke="#CCCCCC" stroke-width="2" fill="#000000" cx="122" cy="55" r="45"></circle>
                        <g id="cogs" transform="translate(92.000000, 31.000000)" fill="#FFFFFF" fill-rule="nonzero">
                            <path d="M50.3906615,18.4342412 L50.1571984,18.0700389 C49.7743191,18.0980545 49.4007782,18.0980545 49.0178988,18.0700389 L48.7844358,18.4435798 C48.2428016,19.3027237 47.1875486,19.6949416 46.2163424,19.3867704 C44.9276265,18.985214 44.0684825,18.5649805 43.0132296,17.6964981 C42.1727626,17.0054475 41.9673152,15.8007782 42.5089494,14.8575875 L42.7424125,14.4560311 C42.5276265,14.1385214 42.340856,13.8116732 42.1727626,13.4661479 L41.3229572,13.4661479 C40.2396887,13.4661479 39.3245136,12.7003891 39.1190661,11.6357977 C38.8762646,10.3564202 38.8669261,9.37587549 39.1284047,8.04046693 C39.3245136,6.98521401 40.2583658,6.21945525 41.3322957,6.21945525 L42.1727626,6.21945525 C42.340856,5.87392996 42.5276265,5.54708171 42.7424125,5.22957198 L42.4996109,4.80933852 C41.9579767,3.87548638 42.1634241,2.68949416 42.985214,1.97976654 C43.9750973,1.12996109 44.8249027,0.644357977 46.1136187,0.205447471 C47.122179,-0.140077821 48.233463,0.270817121 48.7750973,1.19533074 L49.0178988,1.60622568 C49.4007782,1.57821012 49.7743191,1.57821012 50.1571984,1.60622568 L50.4,1.19533074 C50.9416342,0.270817121 52.0529183,-0.140077821 53.0708171,0.214785992 C54.3128405,0.635019455 55.1533074,1.11128405 56.1992218,1.99844358 C57.0210117,2.69883268 57.2171206,3.8848249 56.6754864,4.81867704 L56.4326848,5.22957198 C56.6474708,5.54708171 56.8342412,5.87392996 57.0023346,6.21945525 L57.4785992,6.21945525 C58.5618677,6.21945525 59.4770428,6.98521401 59.6824903,8.04980545 C59.9252918,9.32918288 59.9346304,10.3097276 59.6731518,11.6451362 C59.4770428,12.7003891 58.5431907,13.4661479 57.4692607,13.4661479 L57.0023346,13.4661479 C56.8342412,13.8116732 56.6474708,14.1385214 56.4326848,14.4560311 L56.6661479,14.8575875 C57.2171206,15.8101167 56.9929961,17.014786 56.1525292,17.7058366 C55.1533074,18.5276265 54.2941634,18.9571984 52.9774319,19.3774319 C51.9968872,19.6856031 50.9322957,19.3027237 50.3906615,18.4342412 Z M51.5299611,15.2124514 L52.5198444,16.9214008 C53.1455253,16.6599222 53.7245136,16.3237354 54.2661479,15.9128405 L53.2762646,14.2038911 L53.87393,13.5035019 C54.322179,12.9712062 54.6770428,12.3735409 54.9011673,11.7198444 L55.2093385,10.8513619 L57.1797665,10.8513619 C57.2638132,10.1883268 57.2638132,9.50661479 57.1797665,8.84357977 L55.2093385,8.84357977 L54.9011673,7.97509728 C54.6677043,7.32140078 54.322179,6.72373541 53.87393,6.19143969 L53.2762646,5.49105058 L54.2568093,3.77276265 C53.7245136,3.3618677 53.1361868,3.02568093 52.5105058,2.76420233 L51.5206226,4.47315175 L50.614786,4.30505837 C49.9330739,4.17431907 49.2326848,4.17431907 48.5509728,4.30505837 L47.6451362,4.47315175 L46.6552529,2.76420233 C46.0389105,3.01634241 45.4505837,3.3618677 44.9182879,3.77276265 L45.9081712,5.48171206 L45.3105058,6.18210117 C44.8622568,6.71439689 44.507393,7.31206226 44.2832685,7.96575875 L43.9750973,8.83424125 L42.0046693,8.83424125 C41.9206226,9.49727626 41.9206226,10.1789883 42.0046693,10.8420233 L43.9750973,10.8420233 L44.2832685,11.7105058 C44.5167315,12.3642023 44.8622568,12.9618677 45.3105058,13.4941634 L45.9081712,14.1945525 L44.9182879,15.9128405 C45.4505837,16.3237354 46.0389105,16.6599222 46.6645914,16.9214008 L47.6544747,15.2124514 L48.5603113,15.3805447 C49.2420233,15.511284 49.9424125,15.511284 50.6241245,15.3805447 L51.5299611,15.2124514 Z M13.6622568,42.5276265 L13.6622568,39.5766537 C12.4575875,39.063035 11.3182879,38.4 10.263035,37.6062257 L7.69494163,39.0910506 C6.77976654,39.6140078 5.6311284,39.4365759 4.92140078,38.6614786 C2.6614786,36.2054475 1.32607004,34.0389105 0.196108949,30.4342412 C-0.121400778,29.4350195 0.298832685,28.351751 1.20466926,27.8194553 L3.7540856,26.3346304 C3.59533074,25.0272374 3.59533074,23.7105058 3.7540856,22.4031128 L1.20466926,20.9276265 C0.298832685,20.4046693 -0.121400778,19.3120623 0.196108949,18.3128405 C1.32607004,14.7268482 2.64280156,12.5603113 4.92140078,10.0856031 C5.6311284,9.31050584 6.78910506,9.13307393 7.69494163,9.65603113 L10.2536965,11.140856 C11.3089494,10.3470817 12.448249,9.69338521 13.6529183,9.17042802 L13.6529183,6.21945525 C13.6529183,5.16420233 14.381323,4.25836576 15.4085603,4.03424125 C18.6490272,3.30583658 21.1984436,3.22178988 24.9058366,4.03424125 C25.9330739,4.25836576 26.6708171,5.17354086 26.6708171,6.21945525 L26.6708171,9.17042802 C27.8754864,9.68404669 29.014786,10.3470817 30.0700389,11.1315175 L32.6287938,9.65603113 C33.5439689,9.13307393 34.7019455,9.31050584 35.4116732,10.0856031 C37.9237354,12.8498054 39.2871595,15.3058366 40.2770428,18.3501946 C40.5945525,19.3307393 40.2023346,20.3953307 39.3245136,20.936965 L36.9898833,22.4124514 C37.1486381,23.7198444 37.1486381,25.0365759 36.9898833,26.3439689 L39.6140078,27.9782101 C40.4171206,28.4824903 40.8280156,29.4350195 40.6225681,30.3595331 C39.9782101,33.2824903 37.540856,36.3922179 35.4023346,38.6894942 C34.692607,39.4552529 33.5439689,39.6233463 32.6381323,39.1003891 L30.0700389,37.6155642 C29.014786,38.4093385 27.8754864,39.063035 26.6708171,39.5859922 L26.6708171,42.536965 C26.6708171,43.5828794 25.9424125,44.4980545 24.9151751,44.722179 C21.4132296,45.4972763 18.8544747,45.4879377 15.3992218,44.722179 C14.3906615,44.488716 13.6622568,43.5735409 13.6622568,42.5276265 Z M16.6505837,41.9486381 C18.966537,42.4155642 21.366537,42.4155642 23.6824903,41.9486381 L23.6824903,37.4941634 L24.6817121,37.1392996 C26.2505837,36.5883268 27.6980545,35.7478599 28.9680934,34.6645914 L29.7712062,33.9735409 L33.6373541,36.2054475 C35.2062257,34.4217899 36.8124514,32.3486381 37.5688716,30.1167315 L33.7027237,27.8848249 L33.8988327,26.848249 C34.1976654,25.2046693 34.1976654,23.5330739 33.8988327,21.8894942 L33.7027237,20.8529183 L37.5688716,18.6210117 C36.8124514,16.3891051 35.2062257,14.3066148 33.6373541,12.5322957 L29.7712062,14.7642023 L28.9680934,14.0731518 C27.6980545,12.9805447 26.2599222,12.1494163 24.6817121,11.5984436 L23.6824903,11.2435798 L23.6824903,6.79844358 C21.366537,6.33151751 18.966537,6.33151751 16.6505837,6.79844358 L16.6505837,11.2529183 L15.6513619,11.6077821 C14.0824903,12.1587549 12.6350195,12.9992218 11.3649805,14.0824903 L10.5618677,14.7735409 L6.69571984,12.5416342 C5.13210078,14.319151 3.93558958,16.3884488 3.17509728,18.6303502 L7.04124514,20.8622568 L6.84513619,21.8988327 C6.5463035,23.5424125 6.5463035,25.2140078 6.84513619,26.8575875 L7.04124514,27.8941634 L3.17509728,30.12607 C3.93151751,32.3579767 5.12684825,34.4404669 6.69571984,36.214786 L10.5618677,33.9828794 L11.3649805,34.67393 C12.6350195,35.766537 14.0731518,36.5976654 15.6513619,37.1486381 L16.6505837,37.5035019 L16.6505837,41.9486381 L16.6505837,41.9486381 Z M20.2365759,32.1151751 C15.9688716,32.1151751 12.4949416,28.6412451 12.4949416,24.3735409 C12.4949416,20.1058366 15.9688716,16.6319066 20.2365759,16.6319066 C24.5042802,16.6319066 27.9782101,20.1058366 27.9782101,24.3735409 C27.9782101,28.6412451 24.5042802,32.1151751 20.2365759,32.1151751 Z M20.2365759,19.6202335 C17.6217899,19.6202335 15.4832685,21.7494163 15.4832685,24.3735409 C15.4832685,26.9976654 17.6124514,29.1268482 20.2365759,29.1268482 C22.8513619,29.1268482 24.9898833,26.9976654 24.9898833,24.3735409 C24.9898833,21.7494163 22.8607004,19.6202335 20.2365759,19.6202335 L20.2365759,19.6202335 Z M50.3906615,46.8607004 L50.1571984,46.4964981 C49.7743191,46.5245136 49.4007782,46.5245136 49.0178988,46.4964981 L48.7844358,46.8700389 C48.2428016,47.7291829 47.1875486,48.1214008 46.2163424,47.8132296 C44.9276265,47.4116732 44.0684825,46.9914397 43.0132296,46.1229572 C42.1727626,45.4319066 41.9673152,44.2272374 42.5089494,43.2840467 L42.7424125,42.8824903 C42.5276265,42.5649805 42.340856,42.2381323 42.1727626,41.892607 L41.3229572,41.892607 C40.2396887,41.892607 39.3245136,41.1268482 39.1190661,40.0622568 C38.8762646,38.7828794 38.8669261,37.8023346 39.1284047,36.4669261 C39.3245136,35.4116732 40.2583658,34.6459144 41.3322957,34.6459144 L42.1727626,34.6459144 C42.340856,34.3003891 42.5276265,33.9735409 42.7424125,33.6560311 L42.4996109,33.2357977 C41.9579767,32.3019455 42.1634241,31.1159533 42.985214,30.4062257 C43.9750973,29.5564202 44.8249027,29.0708171 46.1136187,28.6319066 C47.122179,28.2863813 48.233463,28.6972763 48.7750973,29.6217899 L49.0178988,30.0326848 C49.4007782,30.0046693 49.7743191,30.0046693 50.1571984,30.0326848 L50.4,29.6217899 C50.9416342,28.6972763 52.0529183,28.2863813 53.0708171,28.6412451 C54.3128405,29.0614786 55.1533074,29.5377432 56.1992218,30.4249027 C57.0210117,31.1252918 57.2171206,32.311284 56.6754864,33.2451362 L56.4326848,33.6560311 C56.6474708,33.9735409 56.8342412,34.3003891 57.0023346,34.6459144 L57.4785992,34.6459144 C58.5618677,34.6459144 59.4770428,35.4116732 59.6824903,36.4762646 C59.9252918,37.755642 59.9346304,38.7361868 59.6731518,40.0715953 C59.4770428,41.1268482 58.5431907,41.892607 57.4692607,41.892607 L57.0023346,41.892607 C56.8342412,42.2381323 56.6474708,42.5649805 56.4326848,42.8824903 L56.6661479,43.2840467 C57.2171206,44.2365759 56.9929961,45.4412451 56.1525292,46.1322957 C55.1533074,46.9540856 54.2941634,47.3836576 52.9774319,47.8038911 C51.9968872,48.1027237 50.9322957,47.7198444 50.3906615,46.8607004 Z M51.5299611,43.629572 L52.5198444,45.3385214 C53.1455253,45.0770428 53.7245136,44.740856 54.2661479,44.3299611 L53.2762646,42.6210117 L53.87393,41.9206226 C54.322179,41.3883268 54.6770428,40.7906615 54.9011673,40.136965 L55.2093385,39.2684825 L57.1797665,39.2684825 C57.2638132,38.6054475 57.2638132,37.9237354 57.1797665,37.2607004 L55.2093385,37.2607004 L54.9011673,36.3922179 C54.6677043,35.7385214 54.322179,35.140856 53.87393,34.6085603 L53.2762646,33.9081712 L54.2661479,32.1992218 C53.7338521,31.7883268 53.1455253,31.4521401 52.5198444,31.1906615 L51.5299611,32.8996109 L50.6241245,32.7315175 C49.9424125,32.6007782 49.2420233,32.6007782 48.5603113,32.7315175 L47.6544747,32.8996109 L46.6645914,31.1906615 C46.0389105,31.4521401 45.4599222,31.7883268 44.9182879,32.1992218 L45.9081712,33.9081712 L45.3105058,34.6085603 C44.8622568,35.140856 44.507393,35.7385214 44.2832685,36.3922179 L43.9750973,37.2607004 L42.0046693,37.2607004 C41.9206226,37.9237354 41.9206226,38.6054475 42.0046693,39.2684825 L43.9750973,39.2684825 L44.2832685,40.136965 C44.5167315,40.7906615 44.8622568,41.3883268 45.3105058,41.9206226 L45.9081712,42.6210117 L44.9182879,44.3299611 C45.4505837,44.740856 46.0389105,45.0770428 46.6645914,45.3385214 L47.6544747,43.629572 L48.5603113,43.7976654 C49.2420233,43.9284047 49.9424125,43.9284047 50.6241245,43.7976654 L51.5299611,43.629572 Z M52.3891051,38.1945525 C52.3891051,36.5416342 51.0536965,35.2062257 49.4007782,35.2062257 C47.7478599,35.2062257 46.4124514,36.5416342 46.4124514,38.1945525 C46.4124514,39.8474708 47.7478599,41.1828794 49.4007782,41.1828794 C51.0536965,41.1828794 52.3891051,39.8474708 52.3891051,38.1945525 Z M52.3891051,9.77743191 C52.3891051,8.12451362 51.0536965,6.78910506 49.4007782,6.78910506 C47.7478599,6.78910506 46.4124514,8.12451362 46.4124514,9.77743191 C46.4124514,11.4303502 47.7478599,12.7657588 49.4007782,12.7657588 C51.0536965,12.7657588 52.3891051,11.4210117 52.3891051,9.77743191 Z" id="Shape"></path>
                        </g>
                        <g id="hand-pointer" transform="translate(173.000000, 102.571429) rotate(-10.000000) translate(-173.000000, -102.571429) translate(155.000000, 82.000000)" fill="#FFFFFF" fill-rule="nonzero">
                            <path d="M28.9722054,15.1196786 C27.5691696,12.8302232 24.6095357,12.1414018 22.3718304,13.5372054 C21.0889286,11.8632857 18.9428304,11.2648661 17.0586964,11.899125 L17.0586964,4.84151786 C17.0586964,2.17189286 14.9060893,0 12.26025,0 C9.61441071,0 7.46172321,2.17189286 7.46172321,4.84151786 L7.46172321,19.4586429 C5.82741964,18.3599196 3.63849107,18.3424821 1.96617857,19.5769286 C-0.167785714,21.1523304 -0.634821429,24.1637143 0.910928571,26.3209821 L10.0934196,39.1379464 C10.9930982,40.3933661 12.4467589,41.1428571 13.9821429,41.1428571 L28.9055893,41.1428571 C31.1326071,41.1428571 33.0706607,39.5924464 33.5779554,37.404 L35.8738393,27.4999821 C35.9576666,27.1383912 35.9999974,26.7684216 35.9999974,26.3972411 L35.9999974,19.4061696 C35.9999974,15.7607679 32.1419732,13.4346696 28.9722054,15.1196786 L28.9722054,15.1196786 Z M6.59708036,22.1454643 L8.8678125,25.3146696 C8.86790313,25.5925604 9.0465627,25.8389261 9.31067073,25.9253566 C9.57477877,26.011787 9.86452291,25.9187085 10.0288835,25.6946351 C10.193244,25.4705617 10.1949984,25.1662392 10.0332321,24.9402857 L10.0332321,4.84151786 C10.0332321,1.84017857 14.4872679,1.83535714 14.4872679,4.84151786 L14.4872679,19.40625 C14.4872679,19.7612902 14.7750848,20.0491071 15.130125,20.0491071 L15.7041964,20.0491071 C16.0592366,20.0491071 16.3470536,19.7612902 16.3470536,19.40625 L16.3470536,16.4933036 C16.3470536,13.4919643 20.8011696,13.4871429 20.8011696,16.4933036 L20.8011696,19.40625 C20.8011696,19.7612902 21.0889866,20.0491071 21.4440268,20.0491071 L22.0178571,20.0491071 C22.3728973,20.0491071 22.6607143,19.7612902 22.6607143,19.40625 L22.6607143,17.6584821 C22.6607143,14.6570625 27.1148304,14.6524821 27.1148304,17.6584821 L27.1148304,19.40625 C27.1148304,19.7612902 27.4026473,20.0491071 27.7576875,20.0491071 L28.3316786,20.0491071 C28.6867188,20.0491071 28.9745357,19.7612902 28.9745357,19.40625 C28.9745357,16.4049107 33.4286518,16.4000893 33.4286518,19.40625 L33.4286518,26.3973214 C33.4286518,26.5729821 33.4085625,26.7485625 33.3690268,26.9193214 L31.0729821,36.8234196 C30.8344018,37.8526339 29.9431607,38.5714286 28.9056696,38.5714286 L13.9821429,38.5714286 C13.2739554,38.5714286 12.6015268,38.2233214 12.1836696,37.64025 L3.00021429,24.8232857 C1.21524107,22.3318929 4.91279464,19.7949375 6.59708036,22.1454643 Z M14.4871875,32.2232143 L14.4871875,25.2321429 C14.4871875,24.8771027 14.7750044,24.5892857 15.1300446,24.5892857 L15.7041161,24.5892857 C16.0591563,24.5892857 16.3469732,24.8771027 16.3469732,25.2321429 L16.3469732,32.2232143 C16.3469732,32.5782545 16.0591563,32.8660714 15.7041161,32.8660714 L15.1300446,32.8660714 C14.7750044,32.8660714 14.4871875,32.5782545 14.4871875,32.2232143 Z M20.8010089,32.2232143 L20.8010089,25.2321429 C20.8010089,24.8771027 21.0888259,24.5892857 21.4438661,24.5892857 L22.0178571,24.5892857 C22.3728973,24.5892857 22.6607143,24.8771027 22.6607143,25.2321429 L22.6607143,32.2232143 C22.6607143,32.5782545 22.3728973,32.8660714 22.0178571,32.8660714 L21.4438661,32.8660714 C21.0888259,32.8660714 20.8010089,32.5782545 20.8010089,32.2232143 L20.8010089,32.2232143 Z M27.1148304,32.2232143 L27.1148304,25.2321429 C27.1148304,24.8771027 27.4026473,24.5892857 27.7576875,24.5892857 L28.3316786,24.5892857 C28.6867188,24.5892857 28.9745357,24.8771027 28.9745357,25.2321429 L28.9745357,32.2232143 C28.9745357,32.5782545 28.6867188,32.8660714 28.3316786,32.8660714 L27.7576875,32.8660714 C27.4026473,32.8660714 27.1148304,32.5782545 27.1148304,32.2232143 Z" id="Shape"></path>
                        </g>
                    </g>
                </g>
            </g>
        </g>
    </g>
</svg>