<?xml version="1.0" encoding="UTF-8"?>
<svg width="177px" height="160px" viewBox="0 0 177 160" version="1.1" xmlns="http://www.w3.org/2000/svg" xmlns:xlink="http://www.w3.org/1999/xlink">
    <!-- Generator: Sketch 60.1 (88133) - https://sketch.com -->
    <title>Figure/Maskopy/3</title>
    <desc>Created with Sketch.</desc>
    <g id="Features" stroke="none" stroke-width="1" fill="none" fill-rule="evenodd">
        <g id="Features---Maskopy" transform="translate(-219.000000, -553.000000)">
            <g id="Overview" transform="translate(211.000000, 110.000000)">
                <g id="Feature-3" transform="translate(9.000000, 443.000000)">
                    <g id="Figure/Maskopy/3">
                        <circle id="Oval" fill="#333333" cx="146" cy="30" r="30"></circle>
                        <rect id="Rectangle" fill="#333333" transform="translate(126.909903, 47.909903) scale(-1, 1) rotate(-45.000000) translate(-126.909903, -47.909903) " x="119.409903" y="32.9099026" width="15" height="30"></rect>
                        <g id="Maskopy_logo" transform="translate(122.000000, 20.000000)" fill-rule="nonzero">
                            <path d="M46.1845919,3.01128401 C42.7882768,1.16769451 39.2194368,-0.122463007 35.2804582,0.00985202864 C33.0236563,0.0860334129 30.8390263,0.631217184 28.6545107,1.15131265 C27.4478663,1.43770883 26.241222,1.72994749 25.0408783,2.04486874 C24.6866549,2.13512887 24.3235694,2.18610912 23.9581862,2.19688783 C23.5929237,2.18646465 23.2299511,2.13547865 22.8759523,2.04486874 C21.6752649,1.73006205 20.4690788,1.43770883 19.2619761,1.15131265 C17.0771169,0.631102625 14.8926014,0.0854606205 12.6357995,0.00927923628 C8.69613365,-0.122463007 5.12786635,1.16849642 1.73189499,3.01128401 C0.186157518,3.85031026 -0.216400955,4.59482578 0.100582339,5.96173747 C0.477594272,7.58709308 0.979818616,9.19549403 1.70027685,10.6944916 C2.3397166,12.0346069 3.04790463,13.3408221 3.82201432,14.6079236 C5.08742721,16.6668831 6.45525537,18.5258234 8.84379952,19.3834081 C10.293537,19.9038473 11.7728305,20.1940239 13.3071122,20.1015752 C14.1618329,20.0497947 14.9361337,19.6840095 15.6993222,19.3057375 C16.4571265,18.9295274 17.2315418,18.5828735 17.9130501,18.0746921 C18.589747,17.5698329 19.3091742,17.0995704 19.8966301,16.5015752 C19.8966301,16.5015752 22.3267589,14.136401 23.9583007,13.7729069 C25.5906444,14.1368592 28.0198568,16.5015752 28.0198568,16.5015752 C28.6073126,17.0995704 29.3268544,17.5698329 30.0041241,18.0746921 C30.6852888,18.5828735 31.4603914,18.9290692 32.217852,19.3057375 C32.9803532,19.6837804 33.7546539,20.0496802 34.6100621,20.1015752 C36.1443437,20.1939093 37.6229499,19.9038473 39.0733747,19.3834081 C41.4616897,18.5260525 42.8302053,16.6668831 44.0945871,14.6079236 C44.8688516,13.3408913 45.5770812,12.03467 46.2164391,10.6944916 C46.9363246,9.19549403 47.4386635,7.58755131 47.8160191,5.96173747 C48.1326587,4.59482578 47.7299857,3.85031026 46.1845919,3.01128401 Z M12.0184439,12.2095274 C8.95205728,11.1664726 7.36152745,7.68813365 7.36152745,7.68813365 C7.36152745,7.68813365 10.7426062,5.90102148 13.8088783,6.94419093 C16.8751504,7.98736038 18.465222,11.4651265 18.465222,11.4651265 C18.465222,11.4651265 15.0842578,13.2521241 12.0184439,12.2095274 Z M35.8982721,12.2095274 C32.8321146,13.2520095 29.4506921,11.4648974 29.4506921,11.4648974 C29.4506921,11.4648974 31.0414511,7.98644391 34.1079523,6.94396181 C37.1744535,5.90147971 40.5547303,7.68790453 40.5547303,7.68790453 C40.5547303,7.68790453 38.9648878,11.1664726 35.8982721,12.2095274 L35.8982721,12.2095274 Z" id="Shape" fill="#193791"></path>
                            <path d="M12.6357995,0.00927923628 C8.69613365,-0.122463007 5.12786635,1.16849642 1.73189499,3.01128401 C0.186157518,3.85031026 -0.216400955,4.59482578 0.100582339,5.96173747 C0.477594272,7.58709308 0.979818616,9.19549403 1.70027685,10.6944916 C2.3397166,12.0346069 3.04790463,13.3408221 3.82201432,14.6079236 C5.08742721,16.6668831 6.45525537,18.5258234 8.84379952,19.3834081 C10.293537,19.9038473 11.7728305,20.1940239 13.3071122,20.1015752 C14.1618329,20.0497947 14.9361337,19.6840095 15.6993222,19.3057375 C16.4571265,18.9295274 17.2315418,18.5828735 17.9130501,18.0746921 C18.589747,17.5698329 19.3091742,17.0995704 19.8966301,16.5015752 C19.8966301,16.5015752 22.3267589,14.136401 23.9583984,13.7729069 C23.9927828,8.30308353 14.8926014,0.0854606205 12.6357995,0.00927923628 Z M12.0182148,12.2097566 C8.95205728,11.1664726 7.36152745,7.68813365 7.36152745,7.68813365 C7.36152745,7.68813365 10.7426062,5.90102148 13.8088783,6.94419093 C16.8751504,7.98736038 18.465222,11.4651265 18.465222,11.4651265 C18.465222,11.4651265 15.0842578,13.2521241 12.0184439,12.2095274 L12.0182148,12.2097566 Z" id="Shape" fill="#4E67B3"></path>
                            <path d="M35.8982721,12.2095274 C32.8321146,13.2520095 29.4506921,11.4648974 29.4506921,11.4648974 C29.4506921,11.4648974 31.0414511,7.98644391 34.1079523,6.94396181 C37.1744535,5.90147971 40.5547303,7.68790453 40.5547303,7.68790453 C40.5547303,7.68790453 38.9648878,11.1664726 35.8982721,12.2095274 Z" id="Path" fill="#778DCD"></path>
                            <path d="M1.73189499,3.01128401 C0.186157518,3.85031026 -0.216400955,4.59482578 0.100582339,5.96173747 C0.477594272,7.58709308 0.979818616,9.19549403 1.70027685,10.6944916 C2.3397166,12.0346069 3.04790463,13.3408221 3.82201432,14.6079236 C5.08742721,16.6668831 6.45525537,18.5258234 8.84379952,19.3834081 C10.293537,19.9038473 11.7728305,20.1940239 13.3071122,20.1015752 C14.1618329,20.0497947 14.9361337,19.6840095 15.6993222,19.3057375 C16.4571265,18.9295274 18.8900048,12.6471408 20.5216042,12.2833031 C20.5560286,6.81382339 5.12786635,1.16849642 1.73189499,3.01128401 Z M12.0184439,12.2095274 C8.95205728,11.1664726 7.36152745,7.68813365 7.36152745,7.68813365 C7.36152745,7.68813365 10.7426062,5.90102148 13.8088783,6.94419093 C16.8751504,7.98736038 18.465222,11.4651265 18.465222,11.4651265 C18.465222,11.4651265 15.0842578,13.2521241 12.0184439,12.2095274 L12.0184439,12.2095274 Z" id="Shape" fill="#0F2872"></path>
                        </g>
                        <circle id="Oval" stroke="#333333" stroke-width="4" fill="#000000" cx="78" cy="90" r="55"></circle>
                        <circle id="Oval" stroke="#CCCCCC" stroke-width="2" fill="#000000" cx="78" cy="90" r="45"></circle>
                        <circle id="Oval" stroke="#CCCCCC" stroke-width="2" fill="#000000" cx="45.5" cy="139.5" r="19.5"></circle>
                        <circle id="Oval" stroke="#CCCCCC" stroke-width="2" fill="#000000" cx="19.5" cy="95.5" r="19.5"></circle>
                        <circle id="Oval" stroke="#CCCCCC" stroke-width="2" fill="#000000" cx="36.5" cy="47.5" r="19.5"></circle>
                        <g id="SecurityIdentityCompliance/IAM/role" transform="translate(26.000000, 38.000000)" fill-rule="nonzero">
                            <g id="Group">
                                <path d="M21.2588095,9.92357143 C21.1748289,9.82254809 21.10195,9.71279072 21.0414286,9.59619048 C20.7032366,8.93297363 20.4683065,8.22200096 20.3447619,7.48785714 C19.8379076,5.03685553 18.3148687,2.91602379 16.1542857,1.65261905 C14.5828571,0.686190476 12.9878571,0.0576190476 11.0969048,0.301190476 C8.59571429,0.623333333 6.47690476,1.55571429 5.02071429,3.72166667 C4.21409554,4.94410142 3.56635089,6.26423318 3.09309524,7.6502381 C2.6452381,8.91261905 2.7002381,10.2954762 2.13190476,11.5238095 C2.01058156,11.7685567 1.87139548,12.0040351 1.71547619,12.2283333 C1.32261905,12.8280952 0.822380952,13.3833333 0.542142857,14.0302381 C-0.149285714,15.62 0.23047619,16.5392857 1.77047619,17.3302381 C1.92761905,17.4114286 2.09,17.4847619 2.255,17.5502381 C4.05166667,18.2783333 8.24738095,19.1792857 10.8507143,18.1761905 C11.4570656,17.9902084 12.0418123,17.739979 12.595,17.4297619 C14.6666667,16.3166667 16.7357143,15.1904762 18.7942857,14.0695238 C19.7331592,13.5955714 20.5780153,12.9548297 21.287619,12.1785714 C21.9554762,11.4059524 21.9371429,10.6857143 21.2588095,9.92357143 Z" id="Shape" fill="#4B612C"></path>
                                <path d="M13.9464286,1.19428571 C15.0546174,1.5858942 16.0771543,2.1869681 16.9583333,2.9647619 C17.6209524,3.48857143 19.3835714,5.30357143 19.7895238,7.58214286 C19.8314286,7.92 19.857619,8.26309524 19.9230952,8.59571429 C19.9765492,8.74061044 20.0516038,8.87659171 20.1457143,8.99904762 L20.3578571,9.52285714 C20.3578571,9.52285714 20.7454762,10.1383333 20.957619,10.4369048 C21.2195238,10.8088095 21.3242857,11.1911905 21.0283333,11.5788095 C20.3709524,12.4352381 19.5040476,13.0297619 18.4407143,13.582381 L18.5480952,12.4640476 L17.8514286,12.265 C17.5895238,12.8621429 17.7492857,13.312619 18.4092857,13.637381 C17.7859524,13.967381 17.2411905,14.2528571 16.6990476,14.5409524 C15.0333333,15.4314286 13.3807143,16.3454762 11.7019048,17.212381 C10.4811011,17.8539183 9.11512114,18.1687974 7.73666667,18.1264286 C6.14559564,18.0698452 4.57293018,17.7667978 3.0747619,17.2280952 C2.39380952,16.9845238 1.85166667,15.9185714 2.06119048,15.2454762 C2.1586474,14.9148737 2.4893127,14.7106061 2.82857143,14.7714286 C3.99666667,14.8945238 5.16214286,15.0333333 6.32761905,15.1747619 C7.62404762,15.3319048 8.91785714,15.6121429 10.2142857,15.622619 C11.6835714,15.622619 13.0952381,15.1747619 14.467619,14.6038095 C14.0511905,14.632619 13.6347619,14.6561905 13.2183333,14.687619 C12.0607143,14.7740476 10.8952381,14.8107143 9.74547619,14.962619 C8.31809524,15.1511905 6.96666667,14.8395238 5.61,14.5016667 C4.5316129,14.2615253 3.58604745,13.6177161 2.96738095,12.702381 C2.72380952,12.3383333 2.57452381,11.9166667 2.76309524,11.5238095 C2.915,11.66 3.08261905,11.9140476 3.21357143,11.8983333 C3.34452381,11.882619 3.5697619,11.6521429 3.64047619,11.4714286 C3.81857143,11.0078571 3.93904762,10.5207143 4.0752381,10.0414286 C4.27581871,9.17109153 4.52146704,8.31175947 4.81119048,7.46690476 C5.41880952,5.94785714 6.06047619,4.43142857 7.07404762,3.12452381 C7.44293386,2.62833586 7.86153453,2.17112213 8.32333333,1.76 C8.93095238,1.23619048 9.71928571,1.05809524 10.4892857,0.974285714 C11.4033333,0.887857143 12.322619,0.932380952 13.255,0.92452381 C13.307381,0.92452381 13.3597619,0.969047619 13.4121429,0.995238095 L13.9464286,1.19428571 Z" id="Shape" fill="#759C3E"></path>
                                <path d="M19.7895238,7.58214286 C19.6099716,7.18330956 19.4061779,6.79583919 19.1792857,6.42190476 C18.6189155,5.62318642 17.7033664,5.14898504 16.7276841,5.15211724 C15.7520019,5.15524945 14.8395162,5.63531933 14.2842857,6.43761905 C13.5195238,7.50880952 13.1633333,8.73190476 12.9590476,10.01 C12.8961905,10.392381 12.8516667,10.78 12.7835714,11.2697619 C12.4001548,10.6090113 12.1952675,9.85986406 12.1890476,9.09595238 C12.1157143,7.55333333 12.3357143,6.06309524 13.2995238,4.77714286 C13.9883333,3.85785714 14.8028571,3.10880952 15.9945238,2.94380952 C16.315212,2.92521285 16.6369259,2.93573211 16.9557143,2.9752381 C17.3197619,3.28952381 17.7545238,3.55142857 18.037381,3.92595238 C18.7921758,4.85659322 19.3612121,5.92353638 19.7135714,7.06880952 C19.7501147,7.23807061 19.7754869,7.40955175 19.7895238,7.58214286 L19.7895238,7.58214286 Z" id="Shape" fill="#B7CA9D"></path>
                                <path d="M13.9464286,1.19428571 C12.6185714,1.56357143 11.8511905,2.54571429 11.217381,3.67714286 C10.3111905,5.30880952 9.64595238,7.02166667 9.68261905,8.9152381 C9.68877408,9.99796436 9.91790061,11.0678159 10.3557143,12.0580952 C10.4028571,12.1628571 10.4369048,12.2728571 10.502381,12.4457143 C10.0289648,12.4722928 9.578163,12.2408812 9.32380952,11.8407143 C8.84026327,11.1411043 8.60091997,10.3015617 8.64285714,9.45214286 C8.69785714,7.00857143 9.16666667,4.6697619 10.7642857,2.70285714 C11.1144775,2.28318625 11.4971679,1.89173861 11.9088095,1.53214286 C12.32039,1.16114033 12.8644451,0.972232326 13.417381,1.00833333 L13.9464286,1.19428571 Z" id="Shape" fill="#B7CA9D"></path>
                                <path d="M20.3578571,9.52809524 C20.3578571,10.1304762 19.9414286,10.447381 19.5380952,10.7695238 C17.5161905,12.3854762 15.1616667,13.2419048 12.65,13.7054762 C11.5369048,13.912381 10.4159524,14.0930952 9.29238095,14.2292857 C7.92261905,14.3942857 6.64190476,13.917619 5.34809524,13.5797619 C4.82428571,13.4409524 4.30047619,13.2707143 3.75833333,13.1161905 C3.75833333,13.0585714 3.75833333,13.0035714 3.77666667,12.9459524 C4.01197081,12.9262875 4.24850538,12.9262875 4.48380952,12.9459524 C5.53142857,13.1266667 6.56071429,13.3964286 7.61095238,13.4985714 C8.57558609,13.6001716 9.54822344,13.6001716 10.5128571,13.4985714 C12.31868,13.3151944 14.0933154,12.8997043 15.7928571,12.262381 C16.7776457,11.8654906 17.7333321,11.3998998 18.6528571,10.8690476 C19.3809524,10.4604762 20.0540476,9.94452381 20.1457143,8.99642857 L20.3578571,9.52809524 Z" id="Shape" fill="#B7CA9D"></path>
                                <path d="M17.8488095,12.267619 C18.3516667,11.9664286 18.8414286,11.6416667 19.36,11.3745238 C19.5862293,11.304423 19.822569,11.272557 20.0592857,11.2802381 L20.1090476,11.4033333 L18.537619,12.4666667 L17.8488095,12.267619 Z" id="Shape" fill="#B7CA9D"></path>
                            </g>
                        </g>
                        <g id="id-card" transform="translate(8.000000, 86.000000)" fill="#FFFFFF" fill-rule="nonzero">
                            <path d="M15,12 L19.6666667,12 C19.85,12 20,11.85 20,11.6666667 L20,11 C20,10.8166667 19.85,10.6666667 19.6666667,10.6666667 L15,10.6666667 C14.8166667,10.6666667 14.6666667,10.8166667 14.6666667,11 L14.6666667,11.6666667 C14.6666667,11.85 14.8166667,12 15,12 Z M15,9.33333333 L19.6666667,9.33333333 C19.85,9.33333333 20,9.18333333 20,9 L20,8.33333333 C20,8.15 19.85,8 19.6666667,8 L15,8 C14.8166667,8 14.6666667,8.15 14.6666667,8.33333333 L14.6666667,9 C14.6666667,9.18333333 14.8166667,9.33333333 15,9.33333333 Z M15,14.6666667 L19.6666667,14.6666667 C19.85,14.6666667 20,14.5166667 20,14.3333333 L20,13.6666667 C20,13.4833333 19.85,13.3333333 19.6666667,13.3333333 L15,13.3333333 C14.8166667,13.3333333 14.6666667,13.4833333 14.6666667,13.6666667 L14.6666667,14.3333333 C14.6666667,14.5166667 14.8166667,14.6666667 15,14.6666667 Z M8,13.3333333 C9.84166667,13.3333333 11.3333333,11.8416667 11.3333333,10 C11.3333333,8.15833333 9.84166667,6.66666667 8,6.66666667 C6.15833333,6.66666667 4.66666667,8.15833333 4.66666667,10 C4.66666667,11.8416667 6.15833333,13.3333333 8,13.3333333 Z M8,8 C9.10416667,8 10,8.89583333 10,10 C10,11.1041667 9.10416667,12 8,12 C6.89583333,12 6,11.1041667 6,10 C6,8.89583333 6.89583333,8 8,8 Z M21.3333333,0 L2.66666667,0 C1.19583333,0 0,1.19583333 0,2.66666667 L0,16 C0,17.4708333 1.19583333,18.6666667 2.66666667,18.6666667 L21.3333333,18.6666667 C22.8041667,18.6666667 24,17.4708333 24,16 L24,2.66666667 C24,1.19583333 22.8041667,0 21.3333333,0 Z M11.3333333,17.3333333 L4.66666667,17.3333333 L4.66666667,16.7041667 C4.66666667,16.4125 4.75416667,16.1291667 4.91666667,15.8875 C5.15,15.5416667 5.575,15.3375 6.05416667,15.3375 C6.57083333,15.3375 6.92083333,15.6291667 8.00416667,15.6291667 C9.08333333,15.6291667 9.43333333,15.3375 9.95416667,15.3375 C10.4333333,15.3375 10.8583333,15.5458333 11.0916667,15.8875 C11.2541667,16.1291667 11.3416667,16.4125 11.3416667,16.7041667 L11.3416667,17.3333333 L11.3333333,17.3333333 L11.3333333,17.3333333 Z M22.6666667,16 C22.6666667,16.7333333 22.0666667,17.3333333 21.3333333,17.3333333 L12.6666667,17.3333333 L12.6666667,16.7041667 C12.6666667,16.125 12.4916667,15.5875 12.1916667,15.1416667 C11.6875,14.3958333 10.8291667,14 9.95,14 C9.1375,14 8.93333333,14.2916667 8,14.2916667 C7.06666667,14.2916667 6.8625,14 6.05,14 C5.16666667,14 4.30833333,14.3916667 3.80833333,15.1416667 C3.50833333,15.5875 3.33333333,16.125 3.33333333,16.7041667 L3.33333333,17.3333333 L2.66666667,17.3333333 C1.93333333,17.3333333 1.33333333,16.7333333 1.33333333,16 L1.33333333,5.33333333 L22.6666667,5.33333333 L22.6666667,16 Z M22.6666667,4 L1.33333333,4 L1.33333333,2.66666667 C1.33333333,1.93333333 1.93333333,1.33333333 2.66666667,1.33333333 L21.3333333,1.33333333 C22.0666667,1.33333333 22.6666667,1.93333333 22.6666667,2.66666667 L22.6666667,4 Z" id="Shape"></path>
                        </g>
                        <g id="chart-network" transform="translate(33.000000, 130.000000)" fill="#FFFFFF" fill-rule="nonzero">
                            <path d="M19.26,7.605 L18.54,6.645 L16.74,7.995 L17.46,8.955 L19.26,7.605 Z M21.6,7.2 C22.09875,7.2 22.56,7.05 22.9425,6.79125 C23.1975,6.61875 23.41875,6.3975 23.59125,6.1425 C23.85,5.76 24,5.29875 24,4.8 C24,4.30125 23.85,3.84 23.59125,3.4575 C23.505,3.33 23.4075,3.21 23.29875,3.10125 C23.19,2.9925 23.07,2.895 22.9425,2.80875 C22.56,2.55 22.09875,2.4 21.6,2.4 C21.10125,2.4 20.64,2.55 20.2575,2.80875 C20.0025,2.98125 19.78125,3.2025 19.60875,3.4575 C19.35,3.84 19.2,4.30125 19.2,4.8 C19.2,6.12375 20.27625,7.2 21.6,7.2 Z M21.6,3.6 C22.26,3.6 22.8,4.14 22.8,4.8 C22.8,5.46 22.26,6 21.6,6 C20.94,6 20.4,5.46 20.4,4.8 C20.4,4.14 20.94,3.6 21.6,3.6 Z M3.7425,9.40875 C3.36,9.15 2.89875,9 2.4,9 C1.90125,9 1.44,9.15 1.0575,9.40875 C0.8025,9.58125 0.58125,9.8025 0.40875,10.0575 C0.15,10.44 0,10.90125 0,11.4 C0,12.72375 1.07625,13.8 2.4,13.8 C3.72375,13.8 4.8,12.72375 4.8,11.4 C4.8,10.90125 4.65,10.44 4.39125,10.0575 C4.21875,9.8025 3.9975,9.58125 3.7425,9.40875 L3.7425,9.40875 Z M2.4,12.6 C1.74,12.6 1.2,12.06 1.2,11.4 C1.2,10.74 1.74,10.2 2.4,10.2 C3.06,10.2 3.6,10.74 3.6,11.4 C3.6,12.06 3.06,12.6 2.4,12.6 Z M5.7,12 L7.5,12 L7.5,10.8 L5.7,10.8 L5.7,12 Z M22.9425,14.80875 C22.56,14.55 22.09875,14.4 21.6,14.4 C21.10125,14.4 20.64,14.55 20.2575,14.80875 C20.13375,14.89125 20.02125,14.985 19.91625,15.09 L16.47375,13.02375 C16.68375,12.525 16.8,11.97375 16.8,11.4 C16.8,9.07875 14.92125,7.2 12.6,7.2 C12.17625,7.2 11.77875,7.2825 11.3925,7.395 L9.91875,4.24125 C10.455,3.8025 10.8,3.14625 10.8,2.4 C10.8,1.90125 10.65,1.44 10.39125,1.0575 C10.21875,0.8025 9.9975,0.58125 9.7425,0.40875 C9.36,0.15 8.89875,0 8.4,0 C7.90125,0 7.44,0.15 7.0575,0.40875 C6.8025,0.58125 6.58125,0.8025 6.40875,1.0575 C6.15,1.44 6,1.90125 6,2.4 C6,3.72375 7.07625,4.8 8.4,4.8 C8.55,4.8 8.69625,4.78125 8.83875,4.755 L10.30125,7.89 C9.1575,8.64 8.4,9.93 8.4,11.4 C8.4,13.72125 10.27875,15.6 12.6,15.6 C13.9125,15.6 15.0675,14.985 15.84,14.04375 L19.305,16.12125 C19.24125,16.33875 19.20375,16.56375 19.20375,16.8 C19.20375,18.12375 20.28,19.2 21.60375,19.2 C22.1025,19.2 22.56375,19.05 22.94625,18.79125 C23.20125,18.61875 23.4225,18.3975 23.595,18.1425 C23.85,17.76 24,17.29875 24,16.8 C24,16.30125 23.85,15.84 23.59125,15.4575 C23.505,15.33 23.40375,15.21 23.29875,15.10125 C23.19,14.9925 23.07,14.895 22.9425,14.80875 Z M8.4,3.6 C7.74,3.6 7.2,3.06 7.2,2.4 C7.2,1.74 7.74,1.2 8.4,1.2 C9.06,1.2 9.6,1.74 9.6,2.4 C9.6,3.06 9.06,3.6 8.4,3.6 Z M12.6,14.4 C10.94625,14.4 9.6,13.05375 9.6,11.4 C9.6,9.74625 10.94625,8.4 12.6,8.4 C14.25375,8.4 15.6,9.74625 15.6,11.4 C15.6,13.05375 14.25375,14.4 12.6,14.4 Z M21.6,18 C20.94,18 20.4,17.46 20.4,16.8 C20.4,16.14 20.94,15.6 21.6,15.6 C22.26,15.6 22.8,16.14 22.8,16.8 C22.8,17.46 22.26,18 21.6,18 Z" id="Shape"></path>
                        </g>
                        <g id="lock-alt" transform="translate(57.000000, 66.000000)" fill="#FFFFFF" fill-rule="nonzero">
                            <path d="M20.9182879,39.3151751 C19.8910506,39.3151751 19.0505837,38.4747082 19.0505837,37.4474708 L19.0505837,31.4708171 C19.0505837,30.4435798 19.8910506,29.6031128 20.9182879,29.6031128 C21.9455253,29.6031128 22.7859922,30.4435798 22.7859922,31.4708171 L22.7859922,37.4474708 C22.7859922,38.4747082 21.9455253,39.3151751 20.9182879,39.3151751 Z M41.8365759,25.4941634 L41.8365759,43.4241245 C41.8365759,45.8988327 39.8287938,47.9066148 37.3540856,47.9066148 L4.48249027,47.9066148 C2.0077821,47.9066148 0,45.8988327 0,43.4241245 L0,25.4941634 C0,23.0194553 2.0077821,21.0116732 4.48249027,21.0116732 L5.9766537,21.0116732 L5.9766537,15.0350195 C5.9766537,6.77976654 12.7003891,0.0653696498 20.9649805,0.0932978612 C29.2202335,0.121400778 35.8599222,6.91984436 35.8599222,15.1750973 L35.8599222,21.0116732 L37.3540856,21.0116732 C39.8287938,21.0116732 41.8365759,23.0194553 41.8365759,25.4941634 Z M8.96498054,21.0116732 L32.8715953,21.0116732 L32.8715953,15.0350195 C32.8715953,8.44202335 27.511284,3.08171206 20.9182879,3.08171206 C14.3252918,3.08171206 8.96498054,8.44202335 8.96498054,15.0350195 L8.96498054,21.0116732 Z M38.848249,43.4241245 L38.848249,25.4941634 C38.848249,24.6723735 38.1758755,24 37.3540856,24 L4.48249027,24 C3.66070039,24 2.98832685,24.6723735 2.98832685,25.4941634 L2.98832685,43.4241245 C2.98832685,44.2459144 3.66070039,44.9182879 4.48249027,44.9182879 L37.3540856,44.9182879 C38.1758755,44.9182879 38.848249,44.2459144 38.848249,43.4241245 Z" id="Shape"></path>
                        </g>
                    </g>
                </g>
            </g>
        </g>
    </g>
</svg>