<svg xmlns="http://www.w3.org/2000/svg" xmlns:xlink="http://www.w3.org/1999/xlink" viewBox="0 0 509.33 507.81"><defs><style>.cls-1{fill:none;}.cls-2{fill:#4e67b3;}.cls-3{clip-path:url(#clip-path);}.cls-4{fill:#193791;}.cls-5{clip-path:url(#clip-path-2);}.cls-6{fill:#0f2872;}.cls-7{clip-path:url(#clip-path-3);}.cls-8{fill:#778dcd;}.cls-9{fill:#fff;}</style><clipPath id="clip-path" transform="translate(-0.43 -0.52)"><path class="cls-1" d="M255.1,508.33,224.57,322.58l-3.81-27.42L383,190.33s78.6,59.43,89.34,76.86C408.08,442.58,255.1,508.33,255.1,508.33Z"/></clipPath><clipPath id="clip-path-2" transform="translate(-0.43 -0.52)"><path class="cls-1" d="M26.73,237.49c17.87-24.7,117.81-108.23,117.81-108.23s94.82,103,90.53,170.19,20,208.88,20,208.88S87.91,433.37,26.73,237.49Z"/></clipPath><clipPath id="clip-path-3" transform="translate(-0.43 -0.52)"><path class="cls-1" d="M22.28,223.52,146.36,122S217.9,258,234.45,299.77C225.05,113.46,255.1.52,255.1.52S78-10.65.43,70.54C-3.63,155.33,22.28,223.52,22.28,223.52Z"/></clipPath></defs><title>Asset 28</title><g id="Layer_2" data-name="Layer 2"><g id="Portus"><path class="cls-2" d="M.43,70.54c93-93,415.62-93.72,509.34,0,0,317.61-254.67,437.79-254.67,437.79S.43,388.15.43,70.54Z" transform="translate(-0.43 -0.52)"/><g class="cls-3"><path class="cls-4" d="M.43,70.54c93-93,415.62-93.72,509.34,0,0,317.61-254.67,437.79-254.67,437.79S.43,388.15.43,70.54Z" transform="translate(-0.43 -0.52)"/></g><g class="cls-5"><path class="cls-6" d="M.43,70.54c93-93,415.62-93.72,509.34,0,0,317.61-254.67,437.79-254.67,437.79S.43,388.15.43,70.54Z" transform="translate(-0.43 -0.52)"/></g><g class="cls-7"><path class="cls-8" d="M.43,70.54c93-93,415.62-93.72,509.34,0,0,317.61-254.67,437.79-254.67,437.79S.43,388.15.43,70.54Z" transform="translate(-0.43 -0.52)"/></g><circle class="cls-9" cx="240.24" cy="295.09" r="71.54"/><circle class="cls-9" cx="145.78" cy="128.74" r="47.21"/><circle class="cls-9" cx="378.33" cy="184.48" r="47.21"/><rect class="cls-9" x="185.34" y="116.47" width="14.31" height="192.62" transform="translate(-81.04 124.23) rotate(-30)"/><rect class="cls-9" x="301.92" y="151.45" width="14.31" height="178.28" transform="translate(302.58 -151.56) rotate(51.22)"/><polygon class="cls-9" points="471.95 266.67 477.41 252.79 382.42 178.66 373.45 189.81 471.95 266.67"/><polygon class="cls-9" points="21.85 223 26.3 236.97 153.12 132.94 143.92 121.98 21.85 223"/></g></g></svg>